<mxfile host="app.diagrams.net" modified="2023-05-06T02:48:34.603Z" agent="Mozilla/5.0 (Windows NT 10.0; Win64; x64) AppleWebKit/537.36 (KHTML, like Gecko) Chrome/113.0.0.0 Safari/537.36" etag="rx-e6yzENMlmUe_nQB-o" version="21.2.9" type="device">
  <diagram name="PÃ¡gina-1" id="aQK7kT1X5uLiRZxWfmPn">
    <mxGraphModel dx="1805" dy="908" grid="1" gridSize="10" guides="1" tooltips="1" connect="1" arrows="1" fold="1" page="0" pageScale="1" pageWidth="827" pageHeight="1169" background="none" math="0" shadow="0">
      <root>
        <mxCell id="0" />
        <mxCell id="1" parent="0" />
        <mxCell id="e-KzHSleENVKRz86F4LC-1" value="Usuario&lt;br&gt;" style="shape=umlActor;verticalLabelPosition=bottom;verticalAlign=top;html=1;outlineConnect=0;" vertex="1" parent="1">
          <mxGeometry x="-358" y="90" width="30" height="50" as="geometry" />
        </mxCell>
        <mxCell id="e-KzHSleENVKRz86F4LC-2" value="&lt;font style=&quot;font-size: 11px;&quot;&gt;Controlador&lt;br&gt;Hora&lt;br&gt;&lt;/font&gt;" style="ellipse;shape=umlControl;whiteSpace=wrap;html=1;" vertex="1" parent="1">
          <mxGeometry x="412" y="80" width="60" height="70" as="geometry" />
        </mxCell>
        <mxCell id="e-KzHSleENVKRz86F4LC-3" value="Hora" style="ellipse;shape=umlEntity;whiteSpace=wrap;html=1;" vertex="1" parent="1">
          <mxGeometry x="608" y="89" width="64" height="60" as="geometry" />
        </mxCell>
        <mxCell id="e-KzHSleENVKRz86F4LC-4" value="Interfaz" style="shape=umlBoundary;whiteSpace=wrap;html=1;" vertex="1" parent="1">
          <mxGeometry x="-185" y="89" width="79" height="61" as="geometry" />
        </mxCell>
        <mxCell id="e-KzHSleENVKRz86F4LC-5" value="&lt;span style=&quot;font-size: 11px;&quot;&gt;Controlador&lt;br&gt;Temperatura&lt;br&gt;&lt;/span&gt;" style="ellipse;shape=umlControl;whiteSpace=wrap;html=1;" vertex="1" parent="1">
          <mxGeometry x="810" y="81" width="60" height="70" as="geometry" />
        </mxCell>
        <mxCell id="e-KzHSleENVKRz86F4LC-6" value="&lt;span style=&quot;font-size: 11px;&quot;&gt;Controlador&lt;br&gt;Humedad&lt;br&gt;&lt;/span&gt;" style="ellipse;shape=umlControl;whiteSpace=wrap;html=1;" vertex="1" parent="1">
          <mxGeometry x="1229" y="80" width="60" height="70" as="geometry" />
        </mxCell>
        <mxCell id="e-KzHSleENVKRz86F4LC-7" value="&lt;span style=&quot;font-size: 11px;&quot;&gt;Controlador&lt;br&gt;Presion&lt;br&gt;&lt;/span&gt;" style="ellipse;shape=umlControl;whiteSpace=wrap;html=1;" vertex="1" parent="1">
          <mxGeometry x="1645" y="81" width="60" height="70" as="geometry" />
        </mxCell>
        <mxCell id="e-KzHSleENVKRz86F4LC-8" value="Temperatura" style="ellipse;shape=umlEntity;whiteSpace=wrap;html=1;" vertex="1" parent="1">
          <mxGeometry x="1020" y="86" width="64" height="60" as="geometry" />
        </mxCell>
        <mxCell id="e-KzHSleENVKRz86F4LC-9" value="Humedad" style="ellipse;shape=umlEntity;whiteSpace=wrap;html=1;" vertex="1" parent="1">
          <mxGeometry x="1434" y="89" width="64" height="60" as="geometry" />
        </mxCell>
        <mxCell id="e-KzHSleENVKRz86F4LC-10" value="Presion" style="ellipse;shape=umlEntity;whiteSpace=wrap;html=1;" vertex="1" parent="1">
          <mxGeometry x="1848" y="89" width="64" height="60" as="geometry" />
        </mxCell>
        <mxCell id="e-KzHSleENVKRz86F4LC-11" value="" style="html=1;points=[];perimeter=orthogonalPerimeter;outlineConnect=0;targetShapes=umlLifeline;portConstraint=eastwest;newEdgeStyle={&quot;edgeStyle&quot;:&quot;elbowEdgeStyle&quot;,&quot;elbow&quot;:&quot;vertical&quot;,&quot;curved&quot;:0,&quot;rounded&quot;:0};perimeterSpacing=1;" vertex="1" parent="1">
          <mxGeometry x="-348" y="208" width="10" height="529" as="geometry" />
        </mxCell>
        <mxCell id="e-KzHSleENVKRz86F4LC-12" value="" style="html=1;points=[];perimeter=orthogonalPerimeter;outlineConnect=0;targetShapes=umlLifeline;portConstraint=eastwest;newEdgeStyle={&quot;edgeStyle&quot;:&quot;elbowEdgeStyle&quot;,&quot;elbow&quot;:&quot;vertical&quot;,&quot;curved&quot;:0,&quot;rounded&quot;:0};perimeterSpacing=1;" vertex="1" parent="1">
          <mxGeometry x="-139" y="208" width="10" height="529" as="geometry" />
        </mxCell>
        <mxCell id="e-KzHSleENVKRz86F4LC-13" value="" style="html=1;points=[];perimeter=orthogonalPerimeter;outlineConnect=0;targetShapes=umlLifeline;portConstraint=eastwest;newEdgeStyle={&quot;edgeStyle&quot;:&quot;elbowEdgeStyle&quot;,&quot;elbow&quot;:&quot;vertical&quot;,&quot;curved&quot;:0,&quot;rounded&quot;:0};perimeterSpacing=1;" vertex="1" parent="1">
          <mxGeometry x="437" y="208" width="10" height="529" as="geometry" />
        </mxCell>
        <mxCell id="e-KzHSleENVKRz86F4LC-14" value="" style="html=1;points=[];perimeter=orthogonalPerimeter;outlineConnect=0;targetShapes=umlLifeline;portConstraint=eastwest;newEdgeStyle={&quot;edgeStyle&quot;:&quot;elbowEdgeStyle&quot;,&quot;elbow&quot;:&quot;vertical&quot;,&quot;curved&quot;:0,&quot;rounded&quot;:0};perimeterSpacing=1;" vertex="1" parent="1">
          <mxGeometry x="635" y="208" width="10" height="529" as="geometry" />
        </mxCell>
        <mxCell id="e-KzHSleENVKRz86F4LC-15" value="" style="html=1;points=[];perimeter=orthogonalPerimeter;outlineConnect=0;targetShapes=umlLifeline;portConstraint=eastwest;newEdgeStyle={&quot;edgeStyle&quot;:&quot;elbowEdgeStyle&quot;,&quot;elbow&quot;:&quot;vertical&quot;,&quot;curved&quot;:0,&quot;rounded&quot;:0};perimeterSpacing=1;" vertex="1" parent="1">
          <mxGeometry x="835" y="208" width="10" height="529" as="geometry" />
        </mxCell>
        <mxCell id="e-KzHSleENVKRz86F4LC-16" value="" style="html=1;points=[];perimeter=orthogonalPerimeter;outlineConnect=0;targetShapes=umlLifeline;portConstraint=eastwest;newEdgeStyle={&quot;edgeStyle&quot;:&quot;elbowEdgeStyle&quot;,&quot;elbow&quot;:&quot;vertical&quot;,&quot;curved&quot;:0,&quot;rounded&quot;:0};perimeterSpacing=1;" vertex="1" parent="1">
          <mxGeometry x="1047" y="208" width="10" height="529" as="geometry" />
        </mxCell>
        <mxCell id="e-KzHSleENVKRz86F4LC-17" value="" style="html=1;points=[];perimeter=orthogonalPerimeter;outlineConnect=0;targetShapes=umlLifeline;portConstraint=eastwest;newEdgeStyle={&quot;edgeStyle&quot;:&quot;elbowEdgeStyle&quot;,&quot;elbow&quot;:&quot;vertical&quot;,&quot;curved&quot;:0,&quot;rounded&quot;:0};perimeterSpacing=1;" vertex="1" parent="1">
          <mxGeometry x="1256" y="208" width="10" height="529" as="geometry" />
        </mxCell>
        <mxCell id="e-KzHSleENVKRz86F4LC-18" value="" style="html=1;points=[];perimeter=orthogonalPerimeter;outlineConnect=0;targetShapes=umlLifeline;portConstraint=eastwest;newEdgeStyle={&quot;edgeStyle&quot;:&quot;elbowEdgeStyle&quot;,&quot;elbow&quot;:&quot;vertical&quot;,&quot;curved&quot;:0,&quot;rounded&quot;:0};perimeterSpacing=1;" vertex="1" parent="1">
          <mxGeometry x="1463" y="208" width="10" height="529" as="geometry" />
        </mxCell>
        <mxCell id="e-KzHSleENVKRz86F4LC-19" value="" style="html=1;points=[];perimeter=orthogonalPerimeter;outlineConnect=0;targetShapes=umlLifeline;portConstraint=eastwest;newEdgeStyle={&quot;edgeStyle&quot;:&quot;elbowEdgeStyle&quot;,&quot;elbow&quot;:&quot;vertical&quot;,&quot;curved&quot;:0,&quot;rounded&quot;:0};perimeterSpacing=1;" vertex="1" parent="1">
          <mxGeometry x="1670" y="208" width="10" height="522" as="geometry" />
        </mxCell>
        <mxCell id="e-KzHSleENVKRz86F4LC-20" value="" style="html=1;points=[];perimeter=orthogonalPerimeter;outlineConnect=0;targetShapes=umlLifeline;portConstraint=eastwest;newEdgeStyle={&quot;edgeStyle&quot;:&quot;elbowEdgeStyle&quot;,&quot;elbow&quot;:&quot;vertical&quot;,&quot;curved&quot;:0,&quot;rounded&quot;:0};perimeterSpacing=1;" vertex="1" parent="1">
          <mxGeometry x="1877" y="208" width="10" height="522" as="geometry" />
        </mxCell>
        <mxCell id="e-KzHSleENVKRz86F4LC-21" value="" style="html=1;points=[];perimeter=orthogonalPerimeter;outlineConnect=0;targetShapes=umlLifeline;portConstraint=eastwest;newEdgeStyle={&quot;edgeStyle&quot;:&quot;elbowEdgeStyle&quot;,&quot;elbow&quot;:&quot;vertical&quot;,&quot;curved&quot;:0,&quot;rounded&quot;:0};perimeterSpacing=1;" vertex="1" parent="1">
          <mxGeometry x="62" y="208" width="10" height="529" as="geometry" />
        </mxCell>
        <mxCell id="e-KzHSleENVKRz86F4LC-22" value="" style="html=1;points=[];perimeter=orthogonalPerimeter;outlineConnect=0;targetShapes=umlLifeline;portConstraint=eastwest;newEdgeStyle={&quot;edgeStyle&quot;:&quot;elbowEdgeStyle&quot;,&quot;elbow&quot;:&quot;vertical&quot;,&quot;curved&quot;:0,&quot;rounded&quot;:0};perimeterSpacing=1;" vertex="1" parent="1">
          <mxGeometry x="240" y="208" width="10" height="529" as="geometry" />
        </mxCell>
        <mxCell id="e-KzHSleENVKRz86F4LC-23" value="&lt;font style=&quot;font-size: 11px;&quot;&gt;Controlador&lt;br&gt;Dia&lt;br&gt;&lt;/font&gt;" style="ellipse;shape=umlControl;whiteSpace=wrap;html=1;" vertex="1" parent="1">
          <mxGeometry x="38" y="84" width="60" height="70" as="geometry" />
        </mxCell>
        <mxCell id="e-KzHSleENVKRz86F4LC-24" value="Dia" style="ellipse;shape=umlEntity;whiteSpace=wrap;html=1;" vertex="1" parent="1">
          <mxGeometry x="213" y="91" width="64" height="60" as="geometry" />
        </mxCell>
        <mxCell id="e-KzHSleENVKRz86F4LC-25" value="Muestra El Menu De Opciones" style="html=1;verticalAlign=bottom;endArrow=block;edgeStyle=elbowEdgeStyle;elbow=vertical;curved=0;rounded=0;" edge="1" parent="1">
          <mxGeometry width="80" relative="1" as="geometry">
            <mxPoint x="-140" y="250" as="sourcePoint" />
            <mxPoint x="-340" y="250" as="targetPoint" />
          </mxGeometry>
        </mxCell>
        <mxCell id="e-KzHSleENVKRz86F4LC-26" value="Selecciona Opcion 3" style="html=1;verticalAlign=bottom;endArrow=block;edgeStyle=elbowEdgeStyle;elbow=vertical;curved=0;rounded=0;" edge="1" parent="1">
          <mxGeometry width="80" relative="1" as="geometry">
            <mxPoint x="-338" y="277.18" as="sourcePoint" />
            <mxPoint x="-138" y="277.18" as="targetPoint" />
          </mxGeometry>
        </mxCell>
        <mxCell id="e-KzHSleENVKRz86F4LC-27" value="Solicita Numero del Dia" style="html=1;verticalAlign=bottom;endArrow=block;edgeStyle=elbowEdgeStyle;elbow=vertical;curved=0;rounded=0;" edge="1" parent="1">
          <mxGeometry width="80" relative="1" as="geometry">
            <mxPoint x="-138" y="305.18" as="sourcePoint" />
            <mxPoint x="-338" y="305.18" as="targetPoint" />
          </mxGeometry>
        </mxCell>
        <mxCell id="e-KzHSleENVKRz86F4LC-29" value="Ingresa el Numero del Dia" style="html=1;verticalAlign=bottom;endArrow=block;edgeStyle=elbowEdgeStyle;elbow=vertical;curved=0;rounded=0;" edge="1" parent="1">
          <mxGeometry width="80" relative="1" as="geometry">
            <mxPoint x="-337" y="337.09000000000003" as="sourcePoint" />
            <mxPoint x="-137" y="337.09000000000003" as="targetPoint" />
          </mxGeometry>
        </mxCell>
        <mxCell id="e-KzHSleENVKRz86F4LC-30" value="Buscar Dia Ingresado" style="html=1;verticalAlign=bottom;endArrow=block;edgeStyle=elbowEdgeStyle;elbow=vertical;curved=0;rounded=0;" edge="1" parent="1">
          <mxGeometry width="80" relative="1" as="geometry">
            <mxPoint x="-129" y="354.00000000000006" as="sourcePoint" />
            <mxPoint x="60" y="354" as="targetPoint" />
          </mxGeometry>
        </mxCell>
        <mxCell id="e-KzHSleENVKRz86F4LC-32" value="Verificar Dia" style="html=1;verticalAlign=bottom;endArrow=block;edgeStyle=elbowEdgeStyle;elbow=vertical;curved=0;rounded=0;" edge="1" parent="1">
          <mxGeometry width="80" relative="1" as="geometry">
            <mxPoint x="72" y="370.00000000000006" as="sourcePoint" />
            <mxPoint x="240" y="370" as="targetPoint" />
          </mxGeometry>
        </mxCell>
        <mxCell id="e-KzHSleENVKRz86F4LC-34" value="Buscar Hora del Dia Ingresado" style="html=1;verticalAlign=bottom;endArrow=block;edgeStyle=elbowEdgeStyle;elbow=vertical;curved=0;rounded=0;" edge="1" parent="1">
          <mxGeometry width="80" relative="1" as="geometry">
            <mxPoint x="250" y="390.00000000000006" as="sourcePoint" />
            <mxPoint x="430" y="390" as="targetPoint" />
          </mxGeometry>
        </mxCell>
        <mxCell id="e-KzHSleENVKRz86F4LC-35" value="Verificar Hora" style="html=1;verticalAlign=bottom;endArrow=block;edgeStyle=elbowEdgeStyle;elbow=vertical;curved=0;rounded=0;" edge="1" parent="1">
          <mxGeometry width="80" relative="1" as="geometry">
            <mxPoint x="447" y="410.24000000000007" as="sourcePoint" />
            <mxPoint x="630" y="410" as="targetPoint" />
          </mxGeometry>
        </mxCell>
        <mxCell id="e-KzHSleENVKRz86F4LC-36" value="Buscar Temperatura" style="html=1;verticalAlign=bottom;endArrow=block;edgeStyle=elbowEdgeStyle;elbow=vertical;curved=0;rounded=0;" edge="1" parent="1">
          <mxGeometry width="80" relative="1" as="geometry">
            <mxPoint x="647" y="429.9700000000001" as="sourcePoint" />
            <mxPoint x="830" y="429.73" as="targetPoint" />
          </mxGeometry>
        </mxCell>
        <mxCell id="e-KzHSleENVKRz86F4LC-37" value="Verificar Temperatura" style="html=1;verticalAlign=bottom;endArrow=block;edgeStyle=elbowEdgeStyle;elbow=vertical;curved=0;rounded=0;" edge="1" parent="1">
          <mxGeometry width="80" relative="1" as="geometry">
            <mxPoint x="845" y="450.24000000000007" as="sourcePoint" />
            <mxPoint x="1040" y="450" as="targetPoint" />
          </mxGeometry>
        </mxCell>
        <mxCell id="e-KzHSleENVKRz86F4LC-38" value="Buscar Humedad" style="html=1;verticalAlign=bottom;endArrow=block;edgeStyle=elbowEdgeStyle;elbow=vertical;curved=0;rounded=0;" edge="1" parent="1">
          <mxGeometry width="80" relative="1" as="geometry">
            <mxPoint x="1057" y="467.24000000000007" as="sourcePoint" />
            <mxPoint x="1252" y="467" as="targetPoint" />
          </mxGeometry>
        </mxCell>
        <mxCell id="e-KzHSleENVKRz86F4LC-39" value="Verificar Humedad" style="html=1;verticalAlign=bottom;endArrow=block;edgeStyle=elbowEdgeStyle;elbow=vertical;curved=0;rounded=0;" edge="1" parent="1">
          <mxGeometry width="80" relative="1" as="geometry">
            <mxPoint x="1266" y="485.24000000000007" as="sourcePoint" />
            <mxPoint x="1461" y="485" as="targetPoint" />
          </mxGeometry>
        </mxCell>
        <mxCell id="e-KzHSleENVKRz86F4LC-40" value="VerificarPresion" style="html=1;verticalAlign=bottom;endArrow=block;edgeStyle=elbowEdgeStyle;elbow=vertical;curved=0;rounded=0;" edge="1" parent="1">
          <mxGeometry width="80" relative="1" as="geometry">
            <mxPoint x="1473" y="500.24000000000007" as="sourcePoint" />
            <mxPoint x="1668" y="500" as="targetPoint" />
          </mxGeometry>
        </mxCell>
        <mxCell id="e-KzHSleENVKRz86F4LC-41" value="Buscar Presion" style="html=1;verticalAlign=bottom;endArrow=block;edgeStyle=elbowEdgeStyle;elbow=vertical;curved=0;rounded=0;" edge="1" parent="1">
          <mxGeometry width="80" relative="1" as="geometry">
            <mxPoint x="1680" y="519.4200000000001" as="sourcePoint" />
            <mxPoint x="1875" y="519.18" as="targetPoint" />
          </mxGeometry>
        </mxCell>
        <mxCell id="e-KzHSleENVKRz86F4LC-42" value="Return" style="html=1;verticalAlign=bottom;endArrow=block;edgeStyle=elbowEdgeStyle;elbow=vertical;curved=0;rounded=0;dashed=1;" edge="1" parent="1">
          <mxGeometry width="80" relative="1" as="geometry">
            <mxPoint x="1877" y="550.32" as="sourcePoint" />
            <mxPoint x="1682" y="550.0799999999999" as="targetPoint" />
          </mxGeometry>
        </mxCell>
        <mxCell id="e-KzHSleENVKRz86F4LC-43" value="Return" style="html=1;verticalAlign=bottom;endArrow=block;edgeStyle=elbowEdgeStyle;elbow=vertical;curved=0;rounded=0;dashed=1;" edge="1" parent="1">
          <mxGeometry width="80" relative="1" as="geometry">
            <mxPoint x="1668" y="564.2600000000001" as="sourcePoint" />
            <mxPoint x="1473" y="564.02" as="targetPoint" />
          </mxGeometry>
        </mxCell>
        <mxCell id="e-KzHSleENVKRz86F4LC-44" value="Return" style="html=1;verticalAlign=bottom;endArrow=block;edgeStyle=elbowEdgeStyle;elbow=vertical;curved=0;rounded=0;dashed=1;" edge="1" parent="1">
          <mxGeometry width="80" relative="1" as="geometry">
            <mxPoint x="1461" y="577.24" as="sourcePoint" />
            <mxPoint x="1266" y="576.9999999999999" as="targetPoint" />
          </mxGeometry>
        </mxCell>
        <mxCell id="e-KzHSleENVKRz86F4LC-45" value="Return" style="html=1;verticalAlign=bottom;endArrow=block;edgeStyle=elbowEdgeStyle;elbow=vertical;curved=0;rounded=0;dashed=1;" edge="1" parent="1">
          <mxGeometry width="80" relative="1" as="geometry">
            <mxPoint x="1252" y="593.24" as="sourcePoint" />
            <mxPoint x="1057" y="593" as="targetPoint" />
          </mxGeometry>
        </mxCell>
        <mxCell id="e-KzHSleENVKRz86F4LC-46" value="Return" style="html=1;verticalAlign=bottom;endArrow=block;edgeStyle=elbowEdgeStyle;elbow=vertical;curved=0;rounded=0;dashed=1;" edge="1" parent="1">
          <mxGeometry width="80" relative="1" as="geometry">
            <mxPoint x="1047" y="608.24" as="sourcePoint" />
            <mxPoint x="852" y="607.9999999999999" as="targetPoint" />
          </mxGeometry>
        </mxCell>
        <mxCell id="e-KzHSleENVKRz86F4LC-47" value="Return" style="html=1;verticalAlign=bottom;endArrow=block;edgeStyle=elbowEdgeStyle;elbow=vertical;curved=0;rounded=0;dashed=1;" edge="1" parent="1">
          <mxGeometry width="80" relative="1" as="geometry">
            <mxPoint x="833" y="623.24" as="sourcePoint" />
            <mxPoint x="650" y="623" as="targetPoint" />
          </mxGeometry>
        </mxCell>
        <mxCell id="e-KzHSleENVKRz86F4LC-48" value="Return" style="html=1;verticalAlign=bottom;endArrow=block;edgeStyle=elbowEdgeStyle;elbow=vertical;curved=0;rounded=0;dashed=1;" edge="1" parent="1">
          <mxGeometry width="80" relative="1" as="geometry">
            <mxPoint x="633" y="636" as="sourcePoint" />
            <mxPoint x="450" y="635.9999999999999" as="targetPoint" />
          </mxGeometry>
        </mxCell>
        <mxCell id="e-KzHSleENVKRz86F4LC-49" value="Return" style="html=1;verticalAlign=bottom;endArrow=block;edgeStyle=elbowEdgeStyle;elbow=vertical;curved=0;rounded=0;dashed=1;" edge="1" parent="1">
          <mxGeometry width="80" relative="1" as="geometry">
            <mxPoint x="437" y="650" as="sourcePoint" />
            <mxPoint x="254" y="649.9999999999999" as="targetPoint" />
          </mxGeometry>
        </mxCell>
        <mxCell id="e-KzHSleENVKRz86F4LC-50" value="Retorna Datos" style="html=1;verticalAlign=bottom;endArrow=block;edgeStyle=elbowEdgeStyle;elbow=vertical;curved=0;rounded=0;dashed=1;" edge="1" parent="1">
          <mxGeometry width="80" relative="1" as="geometry">
            <mxPoint x="240" y="660" as="sourcePoint" />
            <mxPoint x="72" y="659.9999999999999" as="targetPoint" />
          </mxGeometry>
        </mxCell>
        <mxCell id="e-KzHSleENVKRz86F4LC-51" value="Lista Los Datos" style="html=1;verticalAlign=bottom;endArrow=block;edgeStyle=elbowEdgeStyle;elbow=vertical;curved=0;rounded=0;dashed=1;" edge="1" parent="1" target="e-KzHSleENVKRz86F4LC-12">
          <mxGeometry width="80" relative="1" as="geometry">
            <mxPoint x="61" y="679" as="sourcePoint" />
            <mxPoint x="-120" y="680" as="targetPoint" />
          </mxGeometry>
        </mxCell>
        <mxCell id="e-KzHSleENVKRz86F4LC-52" value="" style="html=1;verticalAlign=bottom;endArrow=block;edgeStyle=elbowEdgeStyle;elbow=vertical;curved=0;rounded=0;" edge="1" parent="1">
          <mxGeometry x="-0.5782" y="-10" width="80" relative="1" as="geometry">
            <mxPoint x="-138" y="700" as="sourcePoint" />
            <mxPoint x="-338" y="700" as="targetPoint" />
            <mxPoint as="offset" />
          </mxGeometry>
        </mxCell>
        <mxCell id="e-KzHSleENVKRz86F4LC-53" value="Muestra Listada Cada Hora, dia , temperatura, humedad y presion del dia ingresado" style="text;html=1;strokeColor=none;fillColor=none;align=center;verticalAlign=middle;whiteSpace=wrap;rounded=0;" vertex="1" parent="1">
          <mxGeometry x="-332" y="660" width="188" height="30" as="geometry" />
        </mxCell>
        <mxCell id="e-KzHSleENVKRz86F4LC-54" value="Loop" style="shape=umlFrame;whiteSpace=wrap;html=1;pointerEvents=0;fillColor=#ffe6cc;strokeColor=#d79b00;strokeWidth=3;" vertex="1" parent="1">
          <mxGeometry x="250" y="330" width="1660" height="340" as="geometry" />
        </mxCell>
        <mxCell id="e-KzHSleENVKRz86F4LC-55" value="&lt;b&gt;&lt;font style=&quot;font-size: 12px;&quot;&gt;[ 24 veces (horas) ]&lt;/font&gt;&lt;/b&gt;" style="text;html=1;strokeColor=none;fillColor=none;align=center;verticalAlign=middle;whiteSpace=wrap;rounded=0;" vertex="1" parent="1">
          <mxGeometry x="309" y="328" width="130" height="30" as="geometry" />
        </mxCell>
        <mxCell id="e-KzHSleENVKRz86F4LC-56" value="" style="endArrow=none;dashed=1;html=1;rounded=0;" edge="1" parent="1" target="e-KzHSleENVKRz86F4LC-1">
          <mxGeometry width="50" height="50" relative="1" as="geometry">
            <mxPoint x="-343.21" y="208" as="sourcePoint" />
            <mxPoint x="-343.21" y="158" as="targetPoint" />
          </mxGeometry>
        </mxCell>
        <mxCell id="e-KzHSleENVKRz86F4LC-57" value="" style="endArrow=none;dashed=1;html=1;rounded=0;" edge="1" parent="1" source="e-KzHSleENVKRz86F4LC-12">
          <mxGeometry width="50" height="50" relative="1" as="geometry">
            <mxPoint x="-134" y="210" as="sourcePoint" />
            <mxPoint x="-134" y="150" as="targetPoint" />
          </mxGeometry>
        </mxCell>
        <mxCell id="e-KzHSleENVKRz86F4LC-59" value="" style="endArrow=none;dashed=1;html=1;rounded=0;" edge="1" parent="1" source="e-KzHSleENVKRz86F4LC-21">
          <mxGeometry width="50" height="50" relative="1" as="geometry">
            <mxPoint x="68" y="210" as="sourcePoint" />
            <mxPoint x="68" y="154" as="targetPoint" />
          </mxGeometry>
        </mxCell>
        <mxCell id="e-KzHSleENVKRz86F4LC-60" value="" style="endArrow=none;dashed=1;html=1;rounded=0;" edge="1" parent="1" source="e-KzHSleENVKRz86F4LC-22">
          <mxGeometry width="50" height="50" relative="1" as="geometry">
            <mxPoint x="246" y="210" as="sourcePoint" />
            <mxPoint x="246" y="152" as="targetPoint" />
          </mxGeometry>
        </mxCell>
        <mxCell id="e-KzHSleENVKRz86F4LC-61" value="" style="endArrow=none;dashed=1;html=1;rounded=0;" edge="1" parent="1" source="e-KzHSleENVKRz86F4LC-13">
          <mxGeometry width="50" height="50" relative="1" as="geometry">
            <mxPoint x="442" y="210" as="sourcePoint" />
            <mxPoint x="442" y="149" as="targetPoint" />
          </mxGeometry>
        </mxCell>
        <mxCell id="e-KzHSleENVKRz86F4LC-62" value="" style="endArrow=none;dashed=1;html=1;rounded=0;" edge="1" parent="1">
          <mxGeometry width="50" height="50" relative="1" as="geometry">
            <mxPoint x="639.79" y="207" as="sourcePoint" />
            <mxPoint x="639.79" y="149" as="targetPoint" />
          </mxGeometry>
        </mxCell>
        <mxCell id="e-KzHSleENVKRz86F4LC-63" value="" style="endArrow=none;dashed=1;html=1;rounded=0;" edge="1" parent="1">
          <mxGeometry width="50" height="50" relative="1" as="geometry">
            <mxPoint x="839.79" y="208" as="sourcePoint" />
            <mxPoint x="839.79" y="150" as="targetPoint" />
          </mxGeometry>
        </mxCell>
        <mxCell id="e-KzHSleENVKRz86F4LC-64" value="" style="endArrow=none;dashed=1;html=1;rounded=0;" edge="1" parent="1">
          <mxGeometry width="50" height="50" relative="1" as="geometry">
            <mxPoint x="1052.79" y="207" as="sourcePoint" />
            <mxPoint x="1052.79" y="149" as="targetPoint" />
          </mxGeometry>
        </mxCell>
        <mxCell id="e-KzHSleENVKRz86F4LC-65" value="" style="endArrow=none;dashed=1;html=1;rounded=0;" edge="1" parent="1">
          <mxGeometry width="50" height="50" relative="1" as="geometry">
            <mxPoint x="1260.79" y="207" as="sourcePoint" />
            <mxPoint x="1260.79" y="149" as="targetPoint" />
          </mxGeometry>
        </mxCell>
        <mxCell id="e-KzHSleENVKRz86F4LC-66" value="" style="endArrow=none;dashed=1;html=1;rounded=0;" edge="1" parent="1">
          <mxGeometry width="50" height="50" relative="1" as="geometry">
            <mxPoint x="1467.79" y="207" as="sourcePoint" />
            <mxPoint x="1467.79" y="149" as="targetPoint" />
          </mxGeometry>
        </mxCell>
        <mxCell id="e-KzHSleENVKRz86F4LC-67" value="" style="endArrow=none;dashed=1;html=1;rounded=0;" edge="1" parent="1">
          <mxGeometry width="50" height="50" relative="1" as="geometry">
            <mxPoint x="1674.79" y="208" as="sourcePoint" />
            <mxPoint x="1674.79" y="150" as="targetPoint" />
          </mxGeometry>
        </mxCell>
        <mxCell id="e-KzHSleENVKRz86F4LC-68" value="" style="endArrow=none;dashed=1;html=1;rounded=0;" edge="1" parent="1">
          <mxGeometry width="50" height="50" relative="1" as="geometry">
            <mxPoint x="1881.79" y="207" as="sourcePoint" />
            <mxPoint x="1881.79" y="149" as="targetPoint" />
          </mxGeometry>
        </mxCell>
      </root>
    </mxGraphModel>
  </diagram>
</mxfile>
